<?xml version="1.0" standalone="no"?>
<!DOCTYPE svg PUBLIC "-//W3C//DTD SVG 20010904//EN"
 "http://www.w3.org/TR/2001/REC-SVG-20010904/DTD/svg10.dtd">
<svg version="1.0" xmlns="http://www.w3.org/2000/svg"
 width="220.000000pt" height="41.000000pt" viewBox="0 0 220.000000 41.000000"
 preserveAspectRatio="xMidYMid meet">

<g transform="translate(0.000000,41.000000) scale(0.100000,-0.100000)"
fill="#000000" stroke="none">
<path d="M129 223 c38 -81 72 -148 78 -150 5 -2 22 24 38 57 16 33 32 60 35
60 3 0 19 -27 35 -60 16 -33 32 -60 35 -60 4 0 34 62 67 137 44 100 67 141 84
150 22 12 19 13 -31 12 -30 -1 -47 -3 -37 -6 9 -2 17 -11 17 -19 0 -18 -82
-214 -90 -214 -3 0 -18 25 -33 55 l-27 56 21 42 c12 23 31 52 42 65 l20 22
-39 0 c-27 0 -35 -3 -25 -9 13 -8 12 -15 -4 -50 -10 -23 -21 -41 -25 -41 -4 0
-15 18 -25 41 -16 35 -17 42 -4 50 9 6 -1 9 -33 9 -48 0 -48 0 -28 -20 10 -10
31 -43 46 -71 l26 -52 -23 -49 c-12 -26 -25 -48 -29 -48 -9 0 -100 197 -100
215 0 8 8 16 18 18 9 3 -4 5 -30 6 l-47 1 68 -147z"/>
<path d="M1956 343 c-7 -16 -32 -73 -55 -128 -23 -55 -54 -110 -67 -122 l-25
-23 53 1 c44 0 49 2 29 10 -17 7 -21 14 -16 27 4 9 12 29 17 45 9 25 14 27 67
27 55 0 57 -1 69 -33 17 -46 15 -65 -5 -70 -10 -3 9 -5 42 -5 48 -1 56 1 39
10 -15 7 -36 50 -74 149 -29 76 -54 139 -56 139 -2 0 -10 -12 -18 -27z m35
-95 l19 -48 -50 0 -49 0 16 38 c8 20 20 48 25 62 8 18 12 21 16 10 2 -8 13
-36 23 -62z"/>
<path d="M503 269 c14 -8 17 -25 17 -99 0 -76 -2 -89 -17 -93 -10 -3 7 -5 37
-5 30 0 48 2 40 5 -25 10 -30 25 -30 106 0 71 2 78 23 87 17 7 10 9 -33 9 -42
0 -51 -2 -37 -10z"/>
<path d="M643 266 c14 -11 17 -29 17 -94 0 -67 -3 -83 -17 -91 -14 -8 -7 -10
32 -10 39 0 46 2 33 10 -12 7 -18 22 -18 49 0 22 4 40 8 40 11 0 72 -76 72
-89 0 -6 17 -11 38 -10 23 0 31 3 20 7 -9 4 -34 30 -56 57 l-40 50 32 36 c17
20 40 41 51 47 17 10 14 11 -24 12 -36 0 -42 -2 -32 -14 10 -11 6 -22 -20 -50
-17 -20 -35 -36 -40 -36 -17 0 -10 78 9 89 13 8 6 10 -33 10 -44 0 -48 -1 -32
-13z"/>
<path d="M883 269 c14 -8 17 -25 17 -99 0 -76 -2 -89 -17 -93 -10 -3 7 -5 37
-5 30 0 48 2 40 5 -25 10 -30 25 -30 106 0 71 2 78 23 87 17 7 10 9 -33 9 -42
0 -51 -2 -37 -10z"/>
<path d="M1023 269 c14 -8 17 -25 17 -94 0 -69 -3 -86 -17 -94 -14 -8 -7 -10
32 -10 39 0 46 2 33 10 -12 6 -18 22 -18 44 0 33 2 35 33 35 41 0 67 26 67 67
0 38 -30 53 -108 53 -44 -1 -53 -3 -39 -11z m105 -11 c13 -13 16 -47 6 -72 -4
-10 -18 -16 -35 -16 -28 0 -29 2 -29 50 0 46 2 50 23 50 13 0 28 -5 35 -12z"/>
<path d="M1223 273 c15 -4 17 -17 17 -93 0 -74 -3 -91 -17 -99 -13 -8 5 -10
70 -11 l87 0 0 27 0 27 -16 -22 c-10 -15 -25 -22 -48 -22 -37 0 -46 12 -46 61
0 25 4 29 29 29 16 0 32 -6 34 -12 3 -7 5 3 5 22 0 19 -2 29 -5 23 -2 -7 -18
-13 -34 -13 -29 0 -30 2 -27 38 3 33 6 37 35 40 22 2 38 -3 54 -20 18 -19 21
-19 15 -5 -3 10 -6 23 -6 28 0 5 -37 8 -82 8 -46 -1 -75 -3 -65 -6z"/>
<path d="M1443 269 c14 -8 17 -25 17 -94 0 -69 -3 -86 -17 -95 -14 -8 2 -10
64 -8 70 3 85 6 107 27 20 19 26 34 26 68 0 57 -14 81 -55 99 -40 17 -171 20
-142 3z m121 -10 c27 -13 46 -54 46 -101 0 -42 -41 -80 -83 -76 l-32 3 -3 79
c-2 44 -1 85 2 93 7 16 37 17 70 2z"/>
<path d="M1703 269 c14 -8 17 -25 17 -94 0 -69 -3 -86 -17 -94 -14 -8 -7 -10
32 -10 39 0 46 2 33 10 -15 8 -18 25 -18 94 0 69 3 86 18 94 13 8 6 10 -33 10
-39 0 -46 -2 -32 -10z"/>
</g>
</svg>
